HIERARCHY
ROOT Root
{
  OFFSET 0.0 0.0 0.0
  CHANNELS 6 Xposition Yposition Zposition Zrotation Yrotation Xrotation
  JOINT Hips
  {
    OFFSET 0.0 100.0 0.0
    CHANNELS 6 Xposition Yposition Zposition Zrotation Yrotation Xrotation
    JOINT Spine1
    {
      OFFSET -0.013727 5.003763 -0.053727
      CHANNELS 3 Zrotation Yrotation Xrotation
      JOINT Spine2
      {
        OFFSET -0.0 7.125301 -0.029825
        CHANNELS 3 Zrotation Yrotation Xrotation
        JOINT Chest
        {
          OFFSET -1e-06 7.550063 -0.815971
          CHANNELS 3 Zrotation Yrotation Xrotation
          JOINT Neck1
          {
            OFFSET -0.181677 26.311295 -0.553348
            CHANNELS 3 Zrotation Yrotation Xrotation
            JOINT Neck2
            {
              OFFSET -3e-06 7.709397 2.302585
              CHANNELS 3 Zrotation Yrotation Xrotation
              JOINT Head
              {
                OFFSET -5e-06 6.128916 1.953709
                CHANNELS 3 Zrotation Yrotation Xrotation
                JOINT HeadEnd
                {
                  OFFSET 0.003598 16.065403 -1.835379
                  CHANNELS 3 Zrotation Yrotation Xrotation
                }
                JOINT Jaw
                {
                  OFFSET 0.002637 0.475592 3.094941
                  CHANNELS 3 Zrotation Yrotation Xrotation
                }
                JOINT LeftEye
                {
                  OFFSET 3.206381 5.380205 7.586883
                  CHANNELS 3 Zrotation Yrotation Xrotation
                }
                JOINT RightEye
                {
                  OFFSET -3.22244 5.361869 7.558234
                  CHANNELS 3 Zrotation Yrotation Xrotation
                }
              }
            }
          }
          JOINT LeftShoulder
          {
            OFFSET 1.621652 23.237164 5.113413
            CHANNELS 3 Zrotation Yrotation Xrotation
            JOINT LeftArm
            {
              OFFSET 14.919846 2e-06 -5.502326
              CHANNELS 3 Zrotation Yrotation Xrotation
              JOINT LeftForeArm
              {
                OFFSET 28.739307 0.0 -0.002588
                CHANNELS 3 Zrotation Yrotation Xrotation
                JOINT LeftHand
                {
                  OFFSET 27.093981 -1e-06 0.002609
                  CHANNELS 3 Zrotation Yrotation Xrotation
                  JOINT LeftHandThumb1
                  {
                    OFFSET 2.276482 -1.392045 3.191413
                    CHANNELS 3 Zrotation Yrotation Xrotation
                    JOINT LeftHandThumb2
                    {
                      OFFSET 4.012836 -1.828127 1.641654
                      CHANNELS 3 Zrotation Yrotation Xrotation
                      JOINT LeftHandThumb3
                      {
                        OFFSET 2.798515 0.0 -3e-06
                        CHANNELS 3 Zrotation Yrotation Xrotation
                        JOINT LeftHandThumbEnd
                        {
                          OFFSET 3.180793 -4e-06 4e-06
                          CHANNELS 3 Zrotation Yrotation Xrotation
                        }
                      }
                    }
                  }
                  JOINT LeftHandIndex1
                  {
                    OFFSET 3.247555 -0.531998 2.296169
                    CHANNELS 3 Zrotation Yrotation Xrotation
                    JOINT LeftHandIndex2
                    {
                      OFFSET 6.364578 0.01206 0.1786
                      CHANNELS 3 Zrotation Yrotation Xrotation
                      JOINT LeftHandIndex3
                      {
                        OFFSET 3.662364 0.0 0.0
                        CHANNELS 3 Zrotation Yrotation Xrotation
                        JOINT LeftHandIndex4
                        {
                          OFFSET 2.329242 4e-06 4e-06
                          CHANNELS 3 Zrotation Yrotation Xrotation
                          JOINT LeftHandIndexEnd
                          {
                            OFFSET 2.759615 -0.180537 -0.113024
                            CHANNELS 3 Zrotation Yrotation Xrotation
                          }
                        }
                      }
                    }
                  }
                  JOINT LeftHandMiddle1
                  {
                    OFFSET 3.163495 0.240981 1.000332
                    CHANNELS 3 Zrotation Yrotation Xrotation
                    JOINT LeftHandMiddle2
                    {
                      OFFSET 6.19078 -0.259278 -1.002548
                      CHANNELS 3 Zrotation Yrotation Xrotation
                      JOINT LeftHandMiddle3
                      {
                        OFFSET 4.35652 -4e-06 -1e-06
                        CHANNELS 3 Zrotation Yrotation Xrotation
                        JOINT LeftHandMiddle4
                        {
                          OFFSET 2.996877 -8e-06 0.0
                          CHANNELS 3 Zrotation Yrotation Xrotation
                          JOINT LeftHandMiddleEnd
                          {
                            OFFSET 2.304287 -0.294569 -0.031741
                            CHANNELS 3 Zrotation Yrotation Xrotation
                          }
                        }
                      }
                    }
                  }
                  JOINT LeftHandRing1
                  {
                    OFFSET 2.882643 -0.053652 -0.322543
                    CHANNELS 3 Zrotation Yrotation Xrotation
                    JOINT LeftHandRing2
                    {
                      OFFSET 5.854541 -0.486202 -1.373841
                      CHANNELS 3 Zrotation Yrotation Xrotation
                      JOINT LeftHandRing3
                      {
                        OFFSET 4.350578 0.0 3e-06
                        CHANNELS 3 Zrotation Yrotation Xrotation
                        JOINT LeftHandRing4
                        {
                          OFFSET 2.651321 7e-06 2e-06
                          CHANNELS 3 Zrotation Yrotation Xrotation
                          JOINT LeftHandRingEnd
                          {
                            OFFSET 1.936105 0.077687 -7.1e-05
                            CHANNELS 3 Zrotation Yrotation Xrotation
                          }
                        }
                      }
                    }
                  }
                  JOINT LeftHandPinky1
                  {
                    OFFSET 2.8655 -0.310005 -1.600378
                    CHANNELS 3 Zrotation Yrotation Xrotation
                    JOINT LeftHandPinky2
                    {
                      OFFSET 5.087849 -1.331141 -1.77123
                      CHANNELS 3 Zrotation Yrotation Xrotation
                      JOINT LeftHandPinky3
                      {
                        OFFSET 3.070974 4e-06 0.0
                        CHANNELS 3 Zrotation Yrotation Xrotation
                        JOINT LeftHandPinky4
                        {
                          OFFSET 1.549672 0.0 1e-06
                          CHANNELS 3 Zrotation Yrotation Xrotation
                          JOINT LeftHandPinkyEnd
                          {
                            OFFSET 1.944893 -0.157802 0.057219
                            CHANNELS 3 Zrotation Yrotation Xrotation
                          }
                        }
                      }
                    }
                  }
                }
              }
            }
          }
          JOINT RightShoulder
          {
            OFFSET -1.380118 23.180309 5.214158
            CHANNELS 3 Zrotation Yrotation Xrotation
            JOINT RightArm
            {
              OFFSET -15.037196 1.2e-05 -5.545604
              CHANNELS 3 Zrotation Yrotation Xrotation
              JOINT RightForeArm
              {
                OFFSET -28.736639 2e-06 -0.002597
                CHANNELS 3 Zrotation Yrotation Xrotation
                JOINT RightHand
                {
                  OFFSET -27.133619 -0.0 0.002613
                  CHANNELS 3 Zrotation Yrotation Xrotation
                  JOINT RightHandThumb1
                  {
                    OFFSET -2.274032 -1.383988 3.163127
                    CHANNELS 3 Zrotation Yrotation Xrotation
                    JOINT RightHandThumb2
                    {
                      OFFSET -4.011429 -1.827466 1.640914
                      CHANNELS 3 Zrotation Yrotation Xrotation
                      JOINT RightHandThumb3
                      {
                        OFFSET -2.794935 -4e-06 -3e-06
                        CHANNELS 3 Zrotation Yrotation Xrotation
                        JOINT RightHandThumbEnd
                        {
                          OFFSET -3.183852 4e-06 1e-06
                          CHANNELS 3 Zrotation Yrotation Xrotation
                        }
                      }
                    }
                  }
                  JOINT RightHandIndex1
                  {
                    OFFSET -3.253266 -0.520057 2.282866
                    CHANNELS 3 Zrotation Yrotation Xrotation
                    JOINT RightHandIndex2
                    {
                      OFFSET -6.341917 0.012471 0.178266
                      CHANNELS 3 Zrotation Yrotation Xrotation
                      JOINT RightHandIndex3
                      {
                        OFFSET -3.654871 -8e-06 -0.0
                        CHANNELS 3 Zrotation Yrotation Xrotation
                        JOINT RightHandIndex4
                        {
                          OFFSET -2.327586 0.0 1e-06
                          CHANNELS 3 Zrotation Yrotation Xrotation
                          JOINT RightHandIndexEnd
                          {
                            OFFSET -2.76179 -0.180656 -0.113078
                            CHANNELS 3 Zrotation Yrotation Xrotation
                          }
                        }
                      }
                    }
                  }
                  JOINT RightHandMiddle1
                  {
                    OFFSET -3.168106 0.246593 1.00103
                    CHANNELS 3 Zrotation Yrotation Xrotation
                    JOINT RightHandMiddle2
                    {
                      OFFSET -6.180828 -0.258836 -1.000895
                      CHANNELS 3 Zrotation Yrotation Xrotation
                      JOINT RightHandMiddle3
                      {
                        OFFSET -4.348901 0.0 -0.0
                        CHANNELS 3 Zrotation Yrotation Xrotation
                        JOINT RightHandMiddle4
                        {
                          OFFSET -3.00024 -4e-06 -2e-06
                          CHANNELS 3 Zrotation Yrotation Xrotation
                          JOINT RightHandMiddleEnd
                          {
                            OFFSET -2.30252 -0.29437 -0.031706
                            CHANNELS 3 Zrotation Yrotation Xrotation
                          }
                        }
                      }
                    }
                  }
                  JOINT RightHandRing1
                  {
                    OFFSET -2.88569 -0.067952 -0.308858
                    CHANNELS 3 Zrotation Yrotation Xrotation
                    JOINT RightHandRing2
                    {
                      OFFSET -5.854198 -0.48613 -1.373731
                      CHANNELS 3 Zrotation Yrotation Xrotation
                      JOINT RightHandRing3
                      {
                        OFFSET -4.33881 -4e-06 -0.0
                        CHANNELS 3 Zrotation Yrotation Xrotation
                        JOINT RightHandRing4
                        {
                          OFFSET -2.654903 -4e-06 4e-06
                          CHANNELS 3 Zrotation Yrotation Xrotation
                          JOINT RightHandRingEnd
                          {
                            OFFSET -1.933568 0.077527 -5.2e-05
                            CHANNELS 3 Zrotation Yrotation Xrotation
                          }
                        }
                      }
                    }
                  }
                  JOINT RightHandPinky1
                  {
                    OFFSET -2.866425 -0.342796 -1.584145
                    CHANNELS 3 Zrotation Yrotation Xrotation
                    JOINT RightHandPinky2
                    {
                      OFFSET -5.091371 -1.332055 -1.772385
                      CHANNELS 3 Zrotation Yrotation Xrotation
                      JOINT RightHandPinky3
                      {
                        OFFSET -3.062664 -4e-06 1e-06
                        CHANNELS 3 Zrotation Yrotation Xrotation
                        JOINT RightHandPinky4
                        {
                          OFFSET -1.546529 4e-06 -2e-06
                          CHANNELS 3 Zrotation Yrotation Xrotation
                          JOINT RightHandPinkyEnd
                          {
                            OFFSET -1.945119 -0.157718 0.057211
                            CHANNELS 3 Zrotation Yrotation Xrotation
                          }
                        }
                      }
                    }
                  }
                }
              }
            }
          }
        }
      }
    }
    JOINT LeftLeg
    {
      OFFSET 10.043214 -8.434526 2.595655
      CHANNELS 3 Zrotation Yrotation Xrotation
      JOINT LeftShin
      {
        OFFSET -1e-06 -43.221752 -0.802913
        CHANNELS 3 Zrotation Yrotation Xrotation
        JOINT LeftFoot
        {
          OFFSET 1e-06 -42.155094 -3.481523
          CHANNELS 3 Zrotation Yrotation Xrotation
          JOINT LeftToeBase
          {
            OFFSET 0.0 -5.059472 13.231529
            CHANNELS 3 Zrotation Yrotation Xrotation
            JOINT LeftToeEnd
            {
              OFFSET -0.009607 -1.647619 6.513017
              CHANNELS 3 Zrotation Yrotation Xrotation
            }
          }
        }
      }
    }
    JOINT RightLeg
    {
      OFFSET -10.047278 -8.29526 2.620317
      CHANNELS 3 Zrotation Yrotation Xrotation
      JOINT RightShin
      {
        OFFSET 1e-06 -43.362206 -0.805556
        CHANNELS 3 Zrotation Yrotation Xrotation
        JOINT RightFoot
        {
          OFFSET 2e-06 -42.117393 -3.478398
          CHANNELS 3 Zrotation Yrotation Xrotation
          JOINT RightToeBase
          {
            OFFSET -0.0 -5.079609 13.284196
            CHANNELS 3 Zrotation Yrotation Xrotation
            JOINT RightToeEnd
            {
              OFFSET 0.009532 -1.634378 6.460591
              CHANNELS 3 Zrotation Yrotation Xrotation
            }
          }
        }
      }
    }
  }
}
MOTION
Frames: 4
Frame Time: 0.03333333333333333
0.0 0.0 0.0 0.0 -0.0 0.0 1.494103 99.583748 3.618911 0.960311 0.119725 -1.912567 0.045371 0.362409 -3.964404 -0.241102 0.150969 -6.583878 -0.134106 -0.885565 26.772186 3.560273 0.797039 11.455931 -1.919602 -2.768703 -3.697328 -1.24711 -4.03048 -10.507917 7.7e-05 -2.3e-05 6e-06 0.03494 0.001272 -0.057864 0.708862 -3.674061 -10.480659 -0.643994 3.683823 -10.47654 -14.671207 -10.428255 16.186256 -56.358131 -13.795335 9.016587 -0.078341 -38.951859 0.263633 8.61823 3.56056 -10.176155 -5.88211 9.861292 0.702589 -10.936879 -0.360576 7.156206 1e-06 8.774831 -2e-06 -15.914809 18.391769 6.130656 -1.844035 2.498506 -2.507279 -10.163608 4.678947 4.621107 -20.97604 -6e-06 0.0 -21.226305 2.451695 -3.594004 1e-06 -6e-06 0.0 -1.362682 2.2408 -0.746324 -21.334929 0.584908 3.008319 -13.821224 -4e-06 -0.0 -23.887188 -0.249081 -0.839486 -59.738384 2.235054 -1.430112 -0.294025 1.679688 0.833256 -14.218219 0.093214 1.300577 -34.212074 -0.28757 0.967166 -20.03323 0.964533 1.212844 0.0 -0.0 -1e-06 -3.440391 0.788235 0.501654 -15.928198 -3.167312 2.999705 -6.338832 -1e-06 0.0 -18.123459 3.648184 -4.905675 -3e-06 1e-06 -3e-06 10.989105 16.02029 16.57889 60.477554 6.484842 9.262297 0.0425 40.595234 0.274512 4.49591 -2.581343 -9.45887 2.243544 -5.255041 -3.18016 14.282902 -0.826594 6.952505 -4e-06 -12.690613 2e-06 16.050392 -17.931648 2.714482 1.665668 -1.955923 -2.878301 4.727802 -4.17059 4.993926 11.020535 2e-06 -2e-06 12.10906 -3.735718 -2.866787 -0.0 -0.0 -1e-06 1.291987 -1.928551 -1.498091 14.800139 0.567469 3.865607 14.242584 -1.341735 -6.660665 19.631985 0.143928 -0.648246 49.712776 -0.861988 -6.381889 0.353029 -1.511151 -0.03194 20.222809 3.684314 2.316629 18.787289 6e-06 -3e-06 10.751637 -0.479867 1.397906 0.0 1e-06 -1e-06 3.27381 0.305948 -0.580114 21.486834 11.830387 2.26613 8.162936 2e-06 -2e-06 18.399099 -3.798984 -4.940582 4e-06 1e-06 -1e-06 4.850788 5.053538 -5.342017 -0.023871 0.158186 11.681666 -7.729291 7.636884 -4.19228 1.666589 -1.799421 -1.193149 0.0 0.0 2e-06 -5.79163 2.240467 -3.132888 0.036872 0.089857 13.301423 6.807714 -1.223417 -8.447673 -1.424467 1.252971 -1.373668 -0.0 0.0 -1e-06 
0.0 0.0 0.0 0.0 -0.0 0.0 1.552815 99.606102 3.702652 0.998589 0.172486 -1.798192 0.017368 0.362601 -4.014781 -0.231793 0.204464 -6.577416 -0.207852 -0.999436 26.668037 3.564225 0.818302 11.211718 -1.910095 -2.844382 -3.683956 -1.236502 -4.03695 -10.398069 7.7e-05 -2.3e-05 6e-06 0.03058 0.012456 -0.063624 0.707311 -3.66364 -10.478777 -0.650824 3.693882 -10.480453 -14.77706 -10.53556 16.177828 -56.515617 -14.018341 9.696207 -0.212097 -36.903442 0.25819 8.062121 4.061507 -9.059644 -5.88211 9.861292 0.702589 -10.936877 -0.360573 7.15621 -1e-06 8.77483 -0.0 -15.98554 18.300354 6.064654 -1.844033 2.498505 -2.50728 -10.163604 4.678948 4.62111 -20.976032 -1e-06 3e-06 -21.226297 2.4517 -3.594002 1e-06 -6e-06 1e-06 -1.362682 2.240799 -0.746323 -21.334923 0.584914 3.008325 -13.821218 -0.0 3e-06 -23.88718 -0.249075 -0.839484 -59.768444 2.209975 -1.360659 -0.294026 1.679689 0.833257 -14.218215 0.093217 1.300581 -34.212067 -0.287559 0.967168 -20.033226 0.964539 1.212842 0.0 -0.0 0.0 -3.44039 0.788234 0.501655 -15.928192 -3.167309 2.999708 -6.338829 -0.0 2e-06 -18.123453 3.648187 -4.905673 -3e-06 0.0 -1e-06 10.985271 15.913458 16.499712 60.523331 6.510053 9.602722 -0.095751 40.305412 0.204681 4.617752 -2.394074 -9.885499 2.243543 -5.255041 -3.180159 14.2829 -0.826596 6.952506 -2e-06 -12.690612 -1e-06 16.055349 -17.912935 2.679743 1.665668 -1.955923 -2.8783 4.727803 -4.170591 4.993927 11.020535 2e-06 -2e-06 12.109061 -3.735719 -2.866785 -0.0 -0.0 -1e-06 1.291987 -1.928551 -1.49809 14.800139 0.567467 3.86561 14.242584 -1.341737 -6.660664 19.631985 0.143925 -0.648246 49.826488 -0.849707 -6.360241 0.353029 -1.511151 -0.03194 20.222805 3.684312 2.31663 18.787287 5e-06 -0.0 10.751635 -0.47987 1.397907 0.0 0.0 -1e-06 3.27381 0.305947 -0.580111 21.486834 11.830384 2.266134 8.162932 1e-06 -1e-06 18.399096 -3.798986 -4.940578 4e-06 0.0 -1e-06 4.775198 5.245342 -5.326373 -0.043964 0.123047 11.492583 -7.768841 7.43485 -4.127951 1.665892 -1.808158 -1.208825 0.0 0.0 2e-06 -5.876083 2.202671 -3.092389 0.043328 0.110062 13.102626 6.812387 -1.306132 -8.405163 -1.428577 1.244995 -1.385443 -0.0 -0.0 -1e-06 
0.0 0.0 0.0 0.0 -0.0 0.0 1.594127 99.609848 3.808347 1.050926 0.242812 -1.690226 -0.029841 0.382862 -4.075328 -0.228573 0.227247 -6.596757 -0.247702 -1.094497 26.640762 3.577001 0.820307 10.970968 -1.891436 -2.903621 -3.695063 -1.240888 -4.072851 -10.318082 7.7e-05 -2.3e-05 5e-06 0.032337 0.00608 -0.06388 0.707377 -3.669993 -10.486012 -0.646856 3.685305 -10.486794 -14.820905 -10.670681 16.185402 -56.740402 -14.272302 10.537374 -0.260843 -35.017849 0.234338 7.383337 4.877357 -7.675206 -5.882108 9.861289 0.702591 -10.936873 -0.360575 7.156208 1e-06 8.774828 0.0 -16.122377 18.331085 5.990804 -1.844033 2.498505 -2.507278 -10.163603 4.678946 4.62111 -20.97603 -2e-06 3e-06 -21.226294 2.451698 -3.594 -0.0 -6e-06 0.0 -1.362682 2.240798 -0.746323 -21.334921 0.58491 3.008324 -13.821218 -3e-06 3e-06 -23.887177 -0.249078 -0.839482 -59.844719 2.236909 -1.391032 -0.294025 1.679688 0.833256 -14.218214 0.093215 1.300582 -34.212063 -0.287564 0.96717 -20.033222 0.964537 1.212843 -1e-06 0.0 1e-06 -3.440389 0.788233 0.501656 -15.928191 -3.16731 2.999709 -6.338828 -0.0 1e-06 -18.123451 3.648183 -4.905673 -3e-06 -0.0 -2e-06 10.981904 15.84568 16.41534 60.541977 6.541814 9.8861 -0.219396 40.02227 0.126276 4.671154 -2.189735 -10.236989 2.243542 -5.255038 -3.180158 14.282892 -0.826594 6.952502 -2e-06 -12.690607 -1e-06 16.106031 -17.909847 2.653824 1.665666 -1.955922 -2.878299 4.727798 -4.170588 4.993924 11.020528 3e-06 -1e-06 12.109053 -3.735716 -2.866784 -0.0 -0.0 -1e-06 1.291986 -1.92855 -1.49809 14.800129 0.567468 3.865606 14.242573 -1.341736 -6.660658 19.631969 0.143926 -0.648244 49.93399 -0.837849 -6.37447 0.353029 -1.511151 -0.03194 20.222794 3.684309 2.31663 18.787273 5e-06 -1e-06 10.751629 -0.479868 1.397905 0.0 0.0 -0.0 3.273807 0.305947 -0.580111 21.486818 11.830377 2.266135 8.16293 2e-06 -0.0 18.39908 -3.798985 -4.940576 4e-06 1e-06 0.0 4.686428 5.352139 -5.361943 -0.0472 0.09333 11.443153 -7.770602 7.274506 -4.14465 1.663749 -1.802558 -1.191472 0.0 -0.0 2e-06 -5.974876 2.089919 -3.113728 0.054199 0.122362 13.083127 6.836341 -1.359727 -8.46511 -1.430321 1.236203 -1.324156 -0.0 -0.0 -1e-06 
0.0 0.0 0.0 0.0 -0.0 0.0 1.615522 99.6073 3.901044 1.093619 0.313578 -1.603114 -0.084083 0.401463 -4.127123 -0.225605 0.228843 -6.617583 -0.261074 -1.145257 26.626762 3.572346 0.821333 10.752604 -1.865866 -2.943693 -3.705516 -1.208469 -4.137444 -10.333456 7.7e-05 -2.2e-05 6e-06 0.033405 0.002454 -0.058717 0.707334 -3.674179 -10.494239 -0.644148 3.680513 -10.492041 -14.833392 -10.748268 16.208307 -57.019794 -14.50238 11.436032 -0.248676 -33.546848 0.235397 6.821596 5.614944 -6.449893 -5.882109 9.861286 0.70259 -10.936873 -0.360574 7.156208 -0.0 8.774826 -1e-06 -16.277121 18.352884 5.9173 -1.844033 2.498505 -2.507277 -10.163601 4.678946 4.621109 -20.976023 -1e-06 1e-06 -21.22629 2.451699 -3.594003 1e-06 -6e-06 -0.0 -1.362682 2.240799 -0.746322 -21.334917 0.584912 3.008322 -13.821215 -1e-06 1e-06 -23.887171 -0.249076 -0.839485 -59.923225 2.274774 -1.409462 -0.294025 1.679688 0.833255 -14.218211 0.093217 1.30058 -34.212055 -0.28756 0.967167 -20.033215 0.964537 1.212842 0.0 -1e-06 1e-06 -3.440389 0.788234 0.501655 -15.928189 -3.167308 2.999707 -6.338828 -1e-06 1e-06 -18.123451 3.648185 -4.905673 -4e-06 -1e-06 -2e-06 10.981073 15.83332 16.332226 60.573097 6.591273 10.1204 -0.319785 39.725628 0.07142 4.656203 -2.044539 -10.427949 2.243543 -5.255037 -3.18016 14.282896 -0.826597 6.952504 -1e-06 -12.690605 2e-06 16.155155 -17.90963 2.65397 1.665667 -1.955922 -2.8783 4.7278 -4.170589 4.993925 11.020529 2e-06 -2e-06 12.109056 -3.735717 -2.866787 -0.0 -0.0 -1e-06 1.291986 -1.92855 -1.498091 14.800134 0.567466 3.865607 14.242579 -1.341735 -6.660663 19.631973 0.143926 -0.648247 50.002857 -0.847595 -6.372757 0.353029 -1.511151 -0.03194 20.222799 3.684309 2.316629 18.787283 5e-06 -3e-06 10.751634 -0.479868 1.397904 0.0 0.0 -0.0 3.273807 0.305947 -0.580112 21.48682 11.830376 2.26613 8.16293 1e-06 -1e-06 18.39909 -3.798986 -4.94058 4e-06 1e-06 -1e-06 4.620134 5.422945 -5.40984 -0.045162 0.071865 11.446499 -7.771332 7.166 -4.18089 1.657979 -1.797392 -1.168234 0.0 0.0 2e-06 -6.051274 1.955934 -3.148066 0.062044 0.126065 13.119504 6.858912 -1.385206 -8.54314 -1.43082 1.219593 -1.259139 0.0 -0.0 -1e-06 
